<svg xmlns="http://www.w3.org/2000/svg" xmlns:xlink="http://www.w3.org/1999/xlink" width="30" height="30" viewBox="0 0 30 30"><defs><style>.a{clip-path:url(#a);}</style><clipPath id="a"><rect width="30" height="30"/></clipPath></defs><g class="a"><g transform="translate(3.22)"><path d="M54.2,141.09c-4.473-.026-8.173-9.157-8.173-13.808,0-7.6,5.7-9.259,7.9-9.259a9.084,9.084,0,0,1,2.979.732,6.655,6.655,0,0,0,1.7.487,5.294,5.294,0,0,0,1.22-.4,9.779,9.779,0,0,1,3.678-.889H63.5a7.539,7.539,0,0,1,6.309,3.186l.461.691-.662.5a5.572,5.572,0,0,0-2.672,4.594,5.186,5.186,0,0,0,2.9,4.794c.414.249.844.507.844,1.073,0,.367-2.93,8.251-7.187,8.251a5.779,5.779,0,0,1-2.427-.589,4.921,4.921,0,0,0-2.16-.521,5.556,5.556,0,0,0-1.71.463,8.373,8.373,0,0,1-2.967.692Z" transform="translate(-46.022 -111.033)"/><path d="M260.8,0c.107,4-2.747,6.769-5.6,6.6C254.729,3.406,258.053,0,260.8,0Z" transform="translate(-242.877)"/></g></g></svg>