<svg xmlns="http://www.w3.org/2000/svg" width="33" height="33" viewBox="0 0 33 33"><defs><style>.a{fill:#fff;}</style></defs><g transform="translate(0.078 0.078)"><path class="a" d="M16.5,33A16.5,16.5,0,1,1,33,16.5,16.519,16.519,0,0,1,16.5,33Zm0-30.937A14.437,14.437,0,1,0,30.938,16.5,14.453,14.453,0,0,0,16.5,2.063Z" transform="translate(-0.078 -0.078)"/><path class="a" d="M8.538,12.835V0H6.322V12.835L1.566,8.079,0,9.646l6.647,6.647a1.107,1.107,0,0,0,1.566,0L14.86,9.646,13.294,8.079Z" transform="translate(9.741 5.312)"/><rect class="a" width="12" height="2" transform="translate(10.879 24.922)"/></g></svg>