<svg xmlns="http://www.w3.org/2000/svg" width="30.704" height="30.707" viewBox="0 0 30.704 30.707"><defs><style>.a{fill:#fbbb00;}.b{fill:#518ef8;}.c{fill:#28b446;}.d{fill:#f14336;}</style></defs><path class="a" d="M6.8,148.53l-1.069,3.989-3.906.082a15.378,15.378,0,0,1-.11-14.334h0L5.2,138.9l1.522,3.456a9.161,9.161,0,0,0,.087,6.168Z" transform="translate(-0.001 -129.975)"/><path class="b" d="M276.373,208.176a15.345,15.345,0,0,1-5.473,14.839h0l-4.38-.219-.62-3.87a9.149,9.149,0,0,0,3.936-4.672h-8.208v-6.072h14.746Z" transform="translate(-245.941 -195.691)"/><path class="c" d="M53.636,318.177h0a15.351,15.351,0,0,1-23.136-4.7l4.975-4.072a9.129,9.129,0,0,0,13.158,4.674Z" transform="translate(-28.682 -290.854)"/><path class="d" d="M52.057,3.534,47.083,7.605A9.128,9.128,0,0,0,33.626,12.39l-5-4.1h0A15.351,15.351,0,0,1,52.057,3.534Z" transform="translate(-26.909 0.001)"/></svg>