<svg width="88" height="82" viewBox="0 0 88 82" fill="none" xmlns="http://www.w3.org/2000/svg">
<path d="M86.5229 37.3203L73.1861 23.8793V8.35272C73.1861 5.54529 70.9287 3.27009 68.1389 3.27009C65.3556 3.27009 63.0982 5.54529 63.0982 8.35272V13.7128L53.1678 3.70458C48.2582 -1.24073 39.7219 -1.23196 34.8235 3.71353L1.47641 37.3203C-0.492138 39.3082 -0.492138 42.5247 1.47641 44.5095C3.44585 46.4968 6.64364 46.4968 8.61237 44.5095L41.9562 10.9018C43.0425 9.81282 44.957 9.81282 46.0376 10.8986L79.3871 44.5095C80.376 45.5033 81.6653 45.9975 82.9542 45.9975C84.2458 45.9975 85.5372 45.5027 86.5231 44.5095C88.4923 42.5249 88.4923 39.3084 86.5229 37.3203Z" fill="url(#paint0_linear)"/>
<path d="M45.2364 20.723C44.2769 19.759 42.7234 19.759 41.7668 20.723L12.7186 49.9149C12.26 50.3757 12 51.0049 12 51.6615V72.953C12 77.9492 16.0299 82 20.9998 82H35.3816V59.6105H51.6184V82H66.0004C70.9701 82 75 77.9492 75 72.9531V51.6615C75 51.0049 74.7423 50.3757 74.2814 49.9149L45.2364 20.723Z" fill="url(#paint1_linear)"/>
<defs>
<linearGradient id="paint0_linear" x1="0" y1="0" x2="0" y2="46" gradientUnits="userSpaceOnUse">
<stop stop-color="#00C7FF"/>
<stop offset="1" stop-color="#008FFF"/>
</linearGradient>
<linearGradient id="paint1_linear" x1="12" y1="20" x2="12" y2="82" gradientUnits="userSpaceOnUse">
<stop stop-color="#00C7FF"/>
<stop offset="1" stop-color="#008FFF"/>
</linearGradient>
</defs>
</svg>
