<svg width="96" height="86" viewBox="0 0 96 86" fill="none" xmlns="http://www.w3.org/2000/svg">
<path d="M27 79.8824L39.7037 82.9412V78.9412L40.7407 78H48V82.7059V86H40.2222L30.6296 82.2353L27 79.8824Z" fill="#CDBDB2"/>
<path d="M69 79.8824L56.4 82.9412V78.9412L55.35 78H48V82.7059V86H55.875L65.5875 82.2353L69 79.8824Z" fill="#CDBDB2"/>
<path d="M41.0159 69.3158L40 78L41.2698 76.9474H54.4762L56 78L54.9841 69.3158L52.9524 68L42.7937 68.2632L41.0159 69.3158Z" fill="#393939"/>
<path d="M34 13L40 27.3196L42.75 69H52.5L55.5 27.3196L61 13L34 13Z" fill="#F89C35"/>
<path d="M7.06087 43.8378L0 65L17.6522 63.955H29V54.8108L28.4957 36L25.9739 38.0901L7.06087 43.8378Z" fill="#F89D35"/>
<path d="M21 46L42 46.5L39.6951 57L29.7073 54.5L21 46Z" fill="#D87C30"/>
<path d="M21 48L29 56V64L21 48Z" fill="#EA8D3A"/>
<path d="M30 56L39.8113 58.4138L43 68.7931L40.7925 70L30 63.7241L30 56Z" fill="#F89D35"/>
<path d="M28.9623 64L27 80L40 70.4516L28.9623 64Z" fill="#EB8F35"/>
<path d="M42 48L43 70L40 58.7412L42 48Z" fill="#EA8E3A"/>
<path d="M18 64.2581L29 64L27.087 80L18 64.2581Z" fill="#D87C30"/>
<path d="M5.5514 86L27 79.25L17.4112 64L0 65.25L5.5514 86Z" fill="#EB8F35"/>
<path d="M40.4634 27L29.4512 36.5696L21 47.2025L42 48L40.4634 27Z" fill="#E8821E"/>
<path d="M27 79.62L40 70L39.0189 78.32V83L30.1887 81.18L27 79.62Z" fill="#DFCEC3"/>
<path d="M69 79.62L56 70L57 78.32V83L66 81.18L69 79.62Z" fill="#DFCEC3"/>
<path d="M36.1795 53L39 59L29 56.3913L36.1795 53Z" fill="#393939"/>
<path d="M5 0L40 27L34.0809 12.3204L5 0Z" fill="#E88F35"/>
<path d="M4.67478 0L0 14.4737L2.5971 30.2632L0.77913 31.3158L3.37623 33.6842L1.29855 35.5263L4.15536 38.1579L2.33739 39.7368L6.49275 45L25.971 38.9474C35.4937 31.2281 40.1685 27.2807 39.9954 27.1053C39.8222 26.9298 28.0487 17.8947 4.67478 0V0Z" fill="#8E5A30"/>
<path d="M88.8466 43.765L95.9854 64.6104L78.1386 63.581H66.6656V54.5737L67.1755 36.0444L69.7251 38.1032L88.8466 43.765Z" fill="#F89D35"/>
<path d="M75.334 46.0811L54.4277 46.5958L56.7223 57.4045L66.6655 54.831L75.334 46.0811Z" fill="#D87C30"/>
<path d="M75.334 46.3384L66.6655 54.5736V62.8089L75.334 46.3384Z" fill="#EA8D3A"/>
<path d="M66.6655 54.8311L56.4674 57.4046L53.153 68.4707L55.4475 69.7574L66.6655 63.0663V54.8311Z" fill="#F89D35"/>
<path d="M66.6654 63.0662L68.7051 79.022L55.4475 69.7573L66.6654 63.0662Z" fill="#EB8F35"/>
<path d="M54.428 46.5957L53.1532 68.4706L56.9775 57.2758L54.428 46.5957Z" fill="#EA8E3A"/>
<path d="M78.3936 63.3235L66.6657 63.0662L68.7053 79.022L78.3936 63.3235Z" fill="#D87C30"/>
<path d="M90.3764 85.9704L68.7053 79.0219L78.3935 63.3235L95.9854 64.6102L90.3764 85.9704Z" fill="#EB8F35"/>
<path d="M55.9575 26.5225L66.9205 35.7871L75.334 46.0812L54.4277 46.8532L55.9575 26.5225Z" fill="#E8821E"/>
<path d="M60.0369 51.228L57.2324 57.1471L67.1756 54.5736L60.0369 51.228Z" fill="#393939"/>
<path d="M90.6313 0.0151367L55.9576 26.5223L61.8215 12.1107L90.6313 0.0151367Z" fill="#E88F35"/>
<path d="M90.6315 0.0151367L95.2207 14.1695L92.6712 29.6106L94.4558 30.64L91.9063 32.9561L93.9459 34.7576L91.1414 37.3311L92.9261 38.8752L88.8468 44.0222L69.7253 38.1032C60.377 30.5542 55.7878 26.6939 55.9578 26.5223C56.1277 26.3508 67.6857 17.515 90.6315 0.0151367V0.0151367Z" fill="#8E5A30"/>
</svg>
