<svg width="9" height="9" viewBox="0 0 9 9" fill="none" xmlns="http://www.w3.org/2000/svg">
<path fill-rule="evenodd" clip-rule="evenodd" d="M8.0186 5.38078C8.05409 5.36606 8.0863 5.34442 8.11335 5.31714C8.16791 5.26138 8.1986 5.18656 8.19891 5.10855V0.945101C8.1958 0.783949 8.06591 0.654054 7.90476 0.650945L3.7406 0.653066C3.62296 0.655062 3.51775 0.726775 3.47289 0.835548C3.42803 0.94432 3.4521 1.06935 3.53413 1.1537L4.57499 2.19456L0.412253 6.3573C0.182785 6.58754 0.182785 6.96002 0.412253 7.19027L1.661 8.43902C1.89125 8.66849 2.26373 8.66849 2.49398 8.43902L6.65671 4.27628L7.69757 5.31714C7.78179 5.40146 7.90858 5.42659 8.0186 5.38078ZM2.07749 8.02253L0.828739 6.77378L5.19866 2.40245C5.31347 2.28763 5.31347 2.10148 5.19866 1.98667L4.44913 1.23714L7.61272 1.23855L7.6106 4.39861L6.8639 3.65191C6.74908 3.53709 6.56293 3.53709 6.44812 3.65191L2.07749 8.02253Z" fill="white"/>
</svg>
