<svg xmlns="http://www.w3.org/2000/svg" xmlns:xlink="http://www.w3.org/1999/xlink" width="22.184" height="22.184" viewBox="0 0 22.184 22.184"><defs><style>.a{fill:url(#a);}</style><linearGradient id="a" x1="0.5" x2="0.5" y2="1" gradientUnits="objectBoundingBox"><stop offset="0" stop-color="#ff006e"/><stop offset="1" stop-color="#a200ff"/></linearGradient></defs><path class="a" d="M11.092,22.184A11.092,11.092,0,1,1,22.184,11.092,11.1,11.1,0,0,1,11.092,22.184Zm0-20.8A9.705,9.705,0,1,0,20.8,11.092,9.716,9.716,0,0,0,11.092,1.386Zm0,0"/><path class="a" d="M138.4,241.386h-9.705a.693.693,0,0,1,0-1.386H138.4a.693.693,0,0,1,0,1.386Zm0,0" transform="translate(-122.454 -229.601)"/><path class="a" d="M240.693,139.092A.693.693,0,0,1,240,138.4v-9.705a.693.693,0,0,1,1.386,0V138.4A.693.693,0,0,1,240.693,139.092Zm0,0" transform="translate(-229.601 -122.454)"/></svg>