<svg id="Group_9" data-name="Group 9" xmlns="http://www.w3.org/2000/svg" xmlns:xlink="http://www.w3.org/1999/xlink" width="17.143" height="17.143" viewBox="0 0 17.143 17.143">
  <defs>
    <clipPath id="clip-path">
      <path id="Search" d="M15.517,16.864l-3.228-3.228a7.626,7.626,0,1,1,1.347-1.347l3.228,3.228a.952.952,0,0,1-1.347,1.347ZM1.9,7.619A5.714,5.714,0,1,0,7.619,1.9,5.721,5.721,0,0,0,1.9,7.619Z"/>
    </clipPath>
  </defs>
  <path id="Search-2" data-name="Search" d="M15.517,16.864l-3.228-3.228a7.626,7.626,0,1,1,1.347-1.347l3.228,3.228a.952.952,0,0,1-1.347,1.347ZM1.9,7.619A5.714,5.714,0,1,0,7.619,1.9,5.721,5.721,0,0,0,1.9,7.619Z" fill="#b5bbc6"/>
</svg>
