<svg xmlns="http://www.w3.org/2000/svg" width="33" height="33" viewBox="0 0 33 33"><defs><style>.a{fill:#fff;}</style></defs><g transform="translate(-5.167 -4.334)"><g transform="translate(4.722 4.722)"><path class="a" d="M16.5,0A16.5,16.5,0,1,0,33,16.5,16.519,16.519,0,0,0,16.5,0Zm0,30.937A14.437,14.437,0,1,1,30.938,16.5,14.453,14.453,0,0,1,16.5,30.937Z" transform="translate(0.444 -0.389)"/><path class="a" d="M8.074,3.577V15.715h-2.1V3.577l-4.5,4.5L0,6.593,6.286.307a1.047,1.047,0,0,1,1.481,0l6.286,6.286L12.572,8.074Z" transform="translate(10.382 12.227)"/><rect class="a" width="9" height="2" transform="translate(12.444 6.611)"/></g></g></svg>