<svg xmlns="http://www.w3.org/2000/svg" xmlns:xlink="http://www.w3.org/1999/xlink" width="70" height="70" viewBox="0 0 70 70">
  <defs>
    <linearGradient id="linear-gradient" x1="0.5" x2="0.5" y2="1" gradientUnits="objectBoundingBox">
      <stop offset="0" stop-color="#ff006e"/>
      <stop offset="1" stop-color="#a200ff"/>
    </linearGradient>
    <clipPath id="clip-Twitter">
      <rect width="70" height="70"/>
    </clipPath>
  </defs>
  <g id="Twitter" clip-path="url(#clip-Twitter)">
    <path id="twitter-2" data-name="twitter" d="M62.808,16.434A28.646,28.646,0,0,0,70,8.985v0a29.971,29.971,0,0,1-8.269,2.266,14.274,14.274,0,0,0,6.315-7.93,28.714,28.714,0,0,1-9.1,3.474A14.35,14.35,0,0,0,34.122,16.6a14.777,14.777,0,0,0,.333,3.273A40.629,40.629,0,0,1,4.874,4.863a14.35,14.35,0,0,0,4.41,19.18A14.185,14.185,0,0,1,2.8,22.276v.158a14.418,14.418,0,0,0,11.5,14.1,14.27,14.27,0,0,1-3.763.473,12.666,12.666,0,0,1-2.715-.245,14.492,14.492,0,0,0,13.408,10A28.847,28.847,0,0,1,3.433,52.881,27.141,27.141,0,0,1,0,52.685a40.413,40.413,0,0,0,22.015,6.44C47.34,59.125,63.846,38,62.808,16.434Z" transform="translate(0 4.75)" fill="url(#linear-gradient)"/>
  </g>
</svg>
