<svg xmlns="http://www.w3.org/2000/svg" xmlns:xlink="http://www.w3.org/1999/xlink" width="412.669" height="92.039" viewBox="0 0 412.669 92.039">
  <defs>
    <linearGradient id="linear-gradient" x1="0.791" y1="0.087" x2="0.23" y2="0.909" gradientUnits="objectBoundingBox">
      <stop offset="0" stop-color="#ff006e"/>
      <stop offset="1" stop-color="#a200ff"/>
    </linearGradient>
  </defs>
  <g id="Group_144" data-name="Group 144" transform="translate(-277 -12)">
    <path id="Combined-Shape" d="M88.019,52a46.019,46.019,0,1,1-30.329,80.632l8.5-45.526,4.726,1.118,12.4,3.228,7.632,1.819,1.107.432,17.138,4.821.983.6,4.413,1.015,3.986.75-2.058-.41-4.974-1.587-8.264-3.067L106.19,94.1l-8.134-2.751-5.515-1.209c-1.262-1.36-1.262-1.36-1.615-1.423l-.027,0-2.026-.594-4.148-1.441,4.316-.044,8.507,1.689,2.874.885,4.51,1.268c2.124.6,2.124.6,2.78.6h.05l.632.443,2.457.291,4.272,1.274.124-.167a5.941,5.941,0,0,1,2.6.422l.245.079.6-.178-4.937-1.533-6.082-2.019-4.105-1.15a.871.871,0,0,1-.371.2l-.044.01-.378.264-7.589-2.332,4.575.1a10.95,10.95,0,0,1,1.971.632,9.028,9.028,0,0,0,1.453.351,4.156,4.156,0,0,0,2.118.495l.162,0,.151.216,6.5,1.809.356-.41-6.254-2.381,2.916.372-3.484-1.987,5.817,1.641,6.833,2.057-.675-.734-1.567-.513-4.84-2.084-6.5-2.046-1.232-.264-1.183-.54a19.616,19.616,0,0,1-5.223-1.452l-.411-.157.011-.329,15.9,4.318L118.3,87.4l-2.312-1.118-2.636-.891-5.326-1.744-7.47-1.933-1.139-.248L87.906,78.58l-9.2-2.332L74.349,75.2l-5.083-1.512,3.867-19.223a45.712,45.712,0,0,1,7.5-1.872l.335.342.778-.384L81.7,52.43A46.438,46.438,0,0,1,88.019,52ZM44.776,82.241,61.1,86.161l-5.274,17.295-.27,1.8-3.493,11.218-.923,2.015a12.913,12.913,0,0,1-.885,2.873c-.27.652-.27.652-.712,1.911a46.11,46.11,0,0,1-4.768-41.032ZM106.617,92.2l5.72,2.192,3.6.777,1.615.238-.043-.292.421.027-1.767-.454-4.71-1.209Zm-.285,1.952.485.4.967-.114-.659-.021ZM67.782,56.677l-.527,1.835-.82,4.116L65.727,66.1a1.92,1.92,0,0,1,.019.429c0,.252,0,.252-.007.728v.123l-1.3,5.5-.119.405-4.046-.95-1.566-.513-5.72-1.387-1.518-.381A46.21,46.21,0,0,1,67.782,56.677Z" transform="translate(235 -40)" fill-rule="evenodd" fill="url(#linear-gradient)"/>
    <path id="XANSHOW" d="M285.072,144.442l17.141-20.089,15.2,20.089h9.191l-19.546-25.751,17.258-20.166h-4.111L305.2,116.17,291.859,98.525h-9.153l17.646,23.269L281,144.442Zm47.583,0,7.252-15.319h19.662l7.019,15.319h7.834l-21.6-46.964h-1.9l-22.144,46.964Zm25.518-18.3H341.264l8.571-18.149Zm62.2,19.391v-47H417v33.546h-.31L386.6,98.525h-4.3v45.917h3.451v-36.26h.271l32.577,37.346Zm11.71-1.086,7.252-15.319H459l7.02,15.319h7.834l-21.6-46.964h-1.9l-22.144,46.964Zm25.518-18.3H440.7l8.57-18.149Zm54.912,18.3v-2.948H489.441V98.525h-7.717v45.917Zm16.053,0V98.525h-7.717v45.917Zm11.671,0,7.252-15.319h19.662l7.02,15.319h7.833l-21.6-46.964h-1.9l-22.144,46.964Zm25.518-18.3H548.85l8.57-18.149Z" transform="translate(107.662 -64.23)" fill="#fff"/>
  </g>
</svg>
