<svg xmlns="http://www.w3.org/2000/svg" width="147.96" height="33" viewBox="0 0 147.96 33">
  <g id="Group_129" data-name="Group 129" transform="translate(-277 -12)">
    <path id="Combined-Shape" d="M58.5,52A16.5,16.5,0,1,1,47.626,80.91l3.047-16.323,1.695.4,4.446,1.157,2.736.652.4.155,6.145,1.728.352.215,1.582.364,1.429.269-.738-.147-1.784-.569-2.963-1.1,1.044-.617L62.1,66.109l-1.977-.433c-.452-.488-.452-.488-.579-.51h-.01l-.726-.213-1.487-.517,1.547-.016,3.05.606,1.03.317,1.617.455a2.809,2.809,0,0,0,1,.213h.018l.227.159.881.1,1.532.457.045-.06a2.13,2.13,0,0,1,.933.151l.088.028.215-.064-1.77-.55-2.181-.724L64.076,65.1a.312.312,0,0,1-.133.072l-.016,0-.136.095-2.721-.836,1.64.035a3.925,3.925,0,0,1,.707.226,3.236,3.236,0,0,0,.521.126A1.49,1.49,0,0,0,64.7,65h.058l.054.077,2.33.648.128-.147-2.243-.854,1.046.134-1.249-.712,2.086.588,2.45.737-.242-.263-.562-.184-1.735-.747-2.332-.734-.442-.095-.424-.194a7.033,7.033,0,0,1-1.873-.52l-.147-.056,0-.118,5.7,1.548,2.053.583-.829-.4-.945-.319-1.909-.625L63,62.653l-.409-.089L58.459,61.53l-3.3-.836L53.6,60.317l-1.822-.542,1.386-6.892a16.389,16.389,0,0,1,2.691-.671l.12.123.279-.138-.017-.042A16.65,16.65,0,0,1,58.5,52ZM43,62.843l5.853,1.406-1.891,6.2-.1.645-1.252,4.022-.331.722a4.63,4.63,0,0,1-.317,1.03c-.1.234-.1.234-.255.685A16.532,16.532,0,0,1,43,62.843Zm22.173,3.57,2.051.786,1.292.279.579.085-.015-.1.151.01-.633-.163L66.9,66.872Zm-.1.7.174.144.347-.041-.236-.008ZM51.244,53.677l-.189.658-.294,1.476-.254,1.245a.689.689,0,0,1,.007.154c0,.09,0,.09,0,.261v.044l-.466,1.971L50,59.632l-1.451-.341-.562-.184-2.051-.5-.544-.136A16.568,16.568,0,0,1,51.244,53.677Z" transform="translate(235 -40)" fill="#fff" fill-rule="evenodd"/>
    <path id="XANSHOW" d="M282.46,114.316l6.146-7.2,5.451,7.2h3.3l-7.008-9.233,6.188-7.231h-1.474l-5.381,6.327-4.783-6.327h-3.282l6.327,8.343L281,114.316Zm17.061,0,2.6-5.492h7.05l2.517,5.492H314.5l-7.745-16.839h-.681l-7.94,16.839Zm9.149-6.563h-6.063l3.073-6.507Zm22.3,6.952V97.853h-1.21v12.028h-.111l-10.79-12.028h-1.543v16.463h1.237v-13h.1l11.68,13.39Zm4.2-.389,2.6-5.492h7.05l2.517,5.492h2.809L342.4,97.477h-.681l-7.94,16.839Zm9.149-6.563h-6.062l3.073-6.507Zm19.688,6.563v-1.057h-8.273V97.853h-2.767v16.463Zm5.756,0V97.853H367v16.463Zm4.185,0,2.6-5.492h7.05l2.517,5.492h2.809L381.18,97.477H380.5l-7.94,16.839Zm9.149-6.563h-6.062l3.073-6.507Z" transform="translate(36.035 -77.859)" fill="#fff"/>
  </g>
</svg>
